<svg xmlns="http://www.w3.org/2000/svg" width="64" height="64" viewBox="0 0 64 64" role="img" aria-label="Splunk Sentinel">
  <rect width="64" height="64" rx="14" fill="#020817"/>
  <path d="M32 6 54 18.5v27L32 58 10 45.5v-27L32 6Z" fill="#08111f" stroke="#60a5fa" stroke-width="3"/>
  <path d="M32 13 47.5 22v20L32 51 16.5 42V22L32 13Z" fill="#0f1b2e" stroke="#2563eb" stroke-width="1.8"/>
  <path d="M20.5 24.5 32 18.5l11.5 6M20.5 39.5 32 45.5l11.5-6" fill="none" stroke="#1d4ed8" stroke-width="1.4" opacity="0.9"/>
  <path d="M20.5 24.5v15M43.5 24.5v15" fill="none" stroke="#1d4ed8" stroke-width="1.4" opacity="0.65"/>
  <circle cx="32" cy="32" r="13" fill="none" stroke="#60a5fa" stroke-width="1.5" opacity="0.55"/>
  <circle cx="32" cy="32" r="7.5" fill="#0b1220" stroke="#3b82f6" stroke-width="1.8"/>
  <path d="M15.5 32h10M38.5 32h10M32 15.5v10M32 38.5v10" fill="none" stroke="#60a5fa" stroke-width="1.8" stroke-linecap="round"/>
  <path d="m27.6 32.4 2.8 2.9 6.3-7.2" fill="none" stroke="#dbeafe" stroke-width="2.6" stroke-linecap="round" stroke-linejoin="round"/>
  <circle cx="20.5" cy="24.5" r="2" fill="#3b82f6"/>
  <circle cx="43.5" cy="24.5" r="2" fill="#3b82f6"/>
  <circle cx="20.5" cy="39.5" r="2" fill="#3b82f6"/>
  <circle cx="43.5" cy="39.5" r="2" fill="#3b82f6"/>
</svg>
